# xmcd
#
# Track frame offsets:
#	150
#	19140
#	32777
#	45848
#	59899
#	72745
#	90294
#	105660
#	119780
#	134689
#	151033
#	169055
#	183032
#	195540
#	207851
#	224193
#
# Disc length: 3160 seconds
# Revision: 0
# Processed by: cddbd v1.5.2PL0 Copyright (c) Steve Scherf et al.
# Submitted via: dBpowerAMP V12.0
#
DISCID=ec0c5610
DTITLE=Erica Sunshine Lee - Elixir
DYEAR=2016
DGENRE=Country
TTITLE0=Shut Up Heart
TTITLE1=The Bottle Ain't Enough
TTITLE2=Karma
TTITLE3=My Favorite Word
TTITLE4=Medicated
TTITLE5=Whiskey Bent And Jail Bound
TTITLE6=I Don't Wanna Talk About It
TTITLE7=Pills And Booze
TTITLE8=Jesus And Georgia
TTITLE9=Medicine
TTITLE10=Briars To Ferns
TTITLE11=Mustard Seed
TTITLE12=Drunker
TTITLE13=Two Words
TTITLE14=Taking The High Road
TTITLE15=Bar Brawl
EXTD=
EXTT0=
EXTT1=
EXTT2=
EXTT3=
EXTT4=
EXTT5=
EXTT6=
EXTT7=
EXTT8=
EXTT9=
EXTT10=
EXTT11=
EXTT12=
EXTT13=
EXTT14=
EXTT15=
PLAYORDER=
